<?xml version="1.0" encoding="utf-8"?>
<!-- Generator: Adobe Illustrator 24.1.2, SVG Export Plug-In . SVG Version: 6.00 Build 0)  -->
<svg version="1.1" id="Layer_1" xmlns="http://www.w3.org/2000/svg" xmlns:xlink="http://www.w3.org/1999/xlink" x="0px" y="0px"
	 viewBox="0 0 1990.05 1029.41" style="enable-background:new 0 0 1990.05 1029.41;" xml:space="preserve">
<style type="text/css">
	.st0{fill:#FFFFFF;}
</style>
<g>
	<path class="st0" d="M320.82,204.35c1.89-6.52,3.73-13.28,5.83-19.96c2.76-8.78,5.33-17.67,8.86-26.15
		c1.16-2.79,4.88-5.89,7.69-6.17c2.24-0.22,6.36,3.2,7.1,5.74c2.78,9.51,4.83,19.27,6.53,29.04c1.54,8.82,1.88,17.86,3.53,26.66
		c0.73,3.89,3.4,7.42,5.18,11.12c0.98-0.12,1.96-0.23,2.94-0.35c0.98-4.55,2.6-9.06,2.84-13.65c1.3-24.35-3.11-48.06-8.22-71.74
		c-1.55-7.16-2.21-14.86-1.38-22.09c1.39-12.06,12.91-21.3,23.96-20.76c10.29,0.51,18.21,9.64,19.22,22.38
		c0.3,3.84,0.2,7.71,0.29,11.56c0.41,16.18,0.44,32.39,1.38,48.54c0.52,8.99,1.31,18.25,8.61,25.96c0.33-2.59,0.98-5.18,0.94-7.76
		c-0.2-11.56-0.67-23.12-0.89-34.69c-0.42-22.34-0.71-44.68-1.1-67.03c-0.41-22.97-11.36-36.1-33.98-39.55
		c-36.17-5.53-72.17-5.51-107.73,4.68c-39.52,11.33-66,37.14-82.79,73.89c-14.21,31.1-21.31,64.25-28.22,97.46
		c-6.12,29.41-12.36,58.8-18.52,88.2c-0.53,2.51-0.93,5.06-1.18,7.62c-2.13,21.67,3.02,28.7,24.45,31.7
		c17.03,2.39,34.21,3.8,51.28,5.95c2.97,0.37,5.75,2.28,8.61,3.48c-2.21,2.55-3.94,6.35-6.73,7.43c-8.8,3.42-17.82,6.96-27.07,8.37
		c-20.55,3.14-41.29,5.01-61.95,7.45c-2.66,0.31-5.29,0.91-7.93,1.37c-0.06,0.67-0.12,1.34-0.19,2.01c2.74,0.78,5.43,1.92,8.23,2.27
		c24.46,3.05,48.95,5.89,73.4,9.03c2.5,0.32,4.79,2.21,7.18,3.38c-1.68,2.35-2.89,6.08-5.11,6.84c-13.52,4.6-27.06,9.62-41.01,12.38
		c-16.59,3.29-33.6,4.45-50.42,6.57c-1.66,0.21-3.3,0.66-5.32,2.74c1.82,0.71,3.59,1.81,5.47,2.06
		c25.44,3.37,50.91,6.53,76.33,10.03c3.14,0.43,6.05,2.51,9.07,3.82c-2.35,2.41-4.31,6.18-7.12,7c-14.24,4.11-28.59,7.99-43.1,10.92
		c-14.08,2.85-28.42,4.41-42.63,6.63c-2.47,0.38-4.88,1.18-7.72,3.62c2.27,1,4.47,2.57,6.83,2.9c22.35,3.19,44.72,6.19,67.09,9.2
		c3.3,0.44,6.71,0.35,9.94,1.07c1.98,0.44,3.72,1.96,5.57,2.99c-1.12,1.87-1.82,4.36-3.46,5.48c-3.33,2.28-6.98,4.72-10.83,5.52
		c-23.34,4.87-46.77,9.26-70.16,13.89c-6.99,1.39-13.93,3.05-20.9,4.59c-0.15,0.87-0.31,1.73-0.46,2.6
		c4.49,1.58,8.87,3.96,13.49,4.61c23.9,3.32,47.87,6.21,71.81,9.23c1.78,0.23,3.67,0.06,5.35,0.59c4.54,1.45,6.43,4.31,1.72,7.4
		c-4.87,3.2-10.17,6.46-15.73,7.78c-18.98,4.51-38.2,8.03-57.26,12.23c-9.01,1.99-17.87,4.68-26.79,7.05
		c0.01,1.34,0.01,2.68,0.02,4.02c6.9,2,13.68,4.87,20.72,5.85c21.1,2.94,42.31,5.14,63.47,7.62c1.79,0.21,3.67,0.1,5.34,0.66
		c1.82,0.6,4.4,1.48,4.86,2.84c0.43,1.29-1.09,3.73-2.39,5.02c-12.11,11.95-27.15,16.86-43.76,18.44
		c-8.1,0.77-16.39,1.75-24.05,4.29c-13.55,4.48-20.53,15.04-21.91,28.97c-3.2,32.32,11.97,56.59,35.36,76.43
		c27.87,23.64,61.19,32.19,96.94,30.58c54.47-2.46,102.9-21.47,143.56-57.99c15.02-13.5,27.59-29.7,41.68-44.28
		c7.29-7.55,14.91-15,23.36-21.17c20.2-14.74,41.46-15.09,61.42-0.03c35.71,26.95,73.98,27.4,114.87,14.89
		c25.47-7.79,51.51-14.16,77.67-19.2c45.31-8.73,82.18,7.14,111.54,41.94c18.4,21.81,27.81,47.49,33.57,75.09
		c7.77,37.25,16.2,74.37,15.83,112.7c-0.07,7.02-1.53,14.35-3.95,20.96c-3.08,8.44-7.73,9.62-15.85,5.46
		c-27.28-13.98-50.39-33.54-72.3-54.61c-21.21-20.39-26.6-21.6-52.77-8.13c-52.31,26.93-107.45,45.15-165.59,53.96
		c-60.97,9.24-121.88,8.39-182.55-2.99c-44.63-8.37-87.36-22.48-128.9-40.96c-17.22-7.66-36.2-11.29-54.3-17.04
		c-21.73-6.91-41.79-17.2-59.76-31.29c-28.04-22-41.13-52.02-47.32-86.35c-8.46-46.9-3.05-93.29,3.56-139.62
		c7.33-51.44,19.95-101.75,34.1-151.71c11.83-41.73,23.87-83.43,34.52-125.47c12.87-50.77,24.09-101.95,36.6-152.81
		c5.43-22.06,13.71-43.08,28.93-60.65c25.13-29.01,57.9-43.55,95.15-46.55c38.11-3.07,76.44-3.75,114.7-4.49
		c40.84-0.79,66.43,21.91,82.62,57.09c13.93,30.26,20.23,62.47,22.06,95.57c1.44,25.97-13.2,43.85-32.32,58.07
		c-35.02,26.06-75.19,38.32-118.52,40.61c-4.29,0.23-8.7-0.57-12.98-1.33c-20.9-3.69-35.63,9.89-32.22,28.75
		c5.38,29.78,10.84,59.6,17.94,89c4.99,20.65,12.71,40.66,19.4,60.89c1.28,3.86,3.13,7.64,5.3,11.09
		c5.6,8.89,14.31,12.24,23.83,7.97c7.88-3.54,15.42-8.21,22.4-13.34c43.18-31.73,91.2-40.89,143.18-30.72
		c7.56,1.48,14.55,6.14,21.63,9.68c3.42,1.71,6.54,4.09,9.6,6.43c19.24,14.75,39.63,17.11,62.31,8.04
		c74.77-29.91,151.95-31.65,229.59-15.54c58.78,12.2,110.95,39.64,157.37,77.77c1.57,1.29,3.75,2.77,4.08,4.47
		c0.95,4.81,2.55,10.3,1.04,14.5c-1.01,2.8-7.01,5.54-10.61,5.34c-13.54-0.77-27.21-1.79-40.48-4.47
		c-42.02-8.51-83.72-18.65-125.84-26.51c-29.81-5.56-60.09-8.36-90.3-0.98c-20.08,4.91-37.25,15.8-54.7,26.1
		c-26.06,15.38-51.62,31.63-80.24,42.24c-39.76,14.74-73.52,5.64-102.28-24.74c-10.59-11.19-20.93-22.66-32.08-33.27
		c-15.26-14.53-31.21-14.67-47.59-1.23c-17.94,14.72-31.55,33.21-42.81,53.1c-11.61,20.49-21.59,41.93-31.59,63.28
		c-14.12,30.16-36.53,52.14-66.05,66.45c-42.62,20.67-87.66,26.89-134.39,18.5c-14.17-2.54-26.88-8.84-36.98-19.4
		c-15.84-16.59-12.46-34.86,8-44.72c9.95-4.79,19.99-9.41,29.72-14.61c25.69-13.71,39.67-36.85,48.55-63.27
		c13.53-40.26,24.28-81.24,27.8-123.8c3.06-37.06-1.93-73.37-10.5-109.27c-1.23-5.15-4.92-9.72-7.47-14.56
		c-3.13,4.37-6.66,8.5-9.32,13.14c-5.11,8.91-10.14,17.48-22.16,17.72c-10.25,0.2-17.07-4.03-17.45-14.27
		c-0.43-11.63,0.67-23.6,3.05-35.01c8.73-41.81,21.07-82.6,36.94-122.29c0.57-1.43,1.13-2.87,1.78-4.27
		c8.83-19.11,18.36-21.68,35.63-9.63c4.21,2.94,8.09,6.58,12.68,8.69c7.58,3.5,15.4,7.5,23.49,8.58
		c10.14,1.35,19.13,3.37,25.75,11.7c0.78,0.98,1.9,1.71,2.93,2.44C318.18,204.1,318.78,204.03,320.82,204.35z"/>
	<path class="st0" d="M1134.47,935.09c-15.1,0-29.7,0.19-44.27-0.28c-1.6-0.05-4.35-3.88-4.41-6.02
		c-0.4-14.13-0.21-28.27-0.21-42.41c0-49.87,0-99.75,0.01-149.62c0-2.47,0-4.94,0-7.41c-0.59-0.19-1.19-0.37-1.78-0.56
		c-36.14,69.75-72.27,139.49-109.48,211.32C938.11,868.08,902.9,798.04,867.7,728c-0.62,0.05-1.24,0.09-1.86,0.14
		c0,4.89,0,9.78,0,14.67c0.02,60.93,0.04,121.85,0.06,182.78c0,9.71-0.41,9.83-9.9,9.63c-4.9-0.1-6.24-2.24-6.05-6.63
		c0.2-4.62,0.04-9.25,0.04-13.88c-0.02-75.84-0.03-151.68-0.03-227.51c0-2.26,0.27-4.53,0.48-7.81c15.92,0,31.49-0.19,47.04,0.25
		c1.88,0.05,4.31,3.15,5.42,5.37c19.87,39.74,39.55,79.57,59.31,119.36c10.13,20.41,20.32,40.8,31.34,62.92
		c2.2-3.73,3.76-6.11,5.07-8.63c29.56-56.71,59.22-113.37,88.47-170.25c3.52-6.85,7.26-9.9,15.21-9.27c10.44,0.82,21,0.2,32.17,0.2
		C1134.47,764.46,1134.47,849.12,1134.47,935.09z"/>
	<path class="st0" d="M1394.08,756.4c1.02-0.33,1.74-0.77,2.45-0.76c37.72,0.79,75.53,0.34,113.12,2.94
		c21.35,1.47,39.38,11.89,46,34.9c6.98,24.24-5.08,45.8-30.31,54.12c-6.05,2-12.3,3.4-19.59,5.38
		c16.43,27.33,32.59,54.22,49.6,82.53c-18.2,0-34.77,0.09-51.34-0.15c-1.55-0.02-3.58-1.89-4.52-3.43
		c-16.95-27.86-33.77-55.79-50.58-83.73c-0.37-0.62-0.45-1.42-1.02-3.32c2.98-0.19,5.6-0.33,8.21-0.53
		c10.19-0.78,20.73-0.2,30.51-2.66c18.55-4.68,26.64-16.87,26.07-35.74c-0.58-19.31-10.76-33.84-28.59-36.96
		c-13.96-2.45-28.42-2.01-43.77-2.92c0,29.57,0,57.5,0,85.43c0,27.69,0,55.39,0,83.56c-15.74,0-30.74,0-46.24,0
		C1394.08,875.32,1394.08,815.86,1394.08,756.4z"/>
	<path class="st0" d="M1266.09,940.89c-28.63,0.47-54.49-7.02-75.46-27.25c-50.15-48.38-30.47-136.57,35.86-157.41
		c41.49-13.03,81.17-8.44,113.85,23.25c50.69,49.15,27.8,137.63-40.08,156.59c-4.69,1.31-9.41,2.72-14.22,3.35
		C1279.45,940.28,1272.75,940.44,1266.09,940.89z M1209.92,844.24c0.25,19.62,3.33,37.94,12.76,54.79
		c20.79,37.13,66.22,39.12,88.81,3.17c6.12-9.73,10.26-21.44,12.42-32.78c5.21-27.37,3.33-54.34-11.55-78.95
		c-22.51-37.22-68-36.64-89.68,1.03C1213.19,808,1210.31,826.14,1209.92,844.24z"/>
	<path class="st0" d="M1582.82,922.91c22.46,0,42.48,0.39,62.47-0.17c9.4-0.26,18.94-1.57,28.05-3.85
		c9.75-2.44,15.83-9.52,16.77-19.84c1-10.97-1.98-20.89-12.23-26.23c-7.16-3.73-15.19-6.07-23.08-8.05
		c-12.42-3.12-25.33-4.5-37.54-8.23c-37.99-11.6-51.86-54-27.6-82.96c10.73-12.81,25.26-17.41,41.14-17.74
		c25.69-0.52,51.39-0.25,77.09-0.26c0.96,0,1.92,0.49,2.77,0.73c2.11,12.11,1.96,12.29-9.18,12.3c-18.5,0.02-37.01-0.12-55.51,0.2
		c-6.1,0.1-12.38,0.67-18.22,2.3c-11.09,3.09-15.16,9.15-15.59,20.96c-0.34,9.48,3.78,16.03,14.45,19.2
		c14.96,4.44,30.38,7.35,45.42,11.54c20.21,5.62,38.74,14.08,49.35,33.81c14.74,27.43,3.55,63.18-23.35,72.78
		c-9.06,3.23-18.94,5.4-28.51,5.7c-26.45,0.81-52.93,0.31-79.4,0.48C1579.6,935.64,1586.1,928.13,1582.82,922.91z"/>
	<path class="st0" d="M1799.45,1004.41c6.97-13.1,13.67-25.7,20.39-38.28c4.23-7.93,8.12-16.08,12.89-23.68
		c3.5-5.57,2.95-10.06,0-15.63c-29.02-54.67-57.81-109.46-86.65-164.23c-0.82-1.55-1.49-3.18-2.92-6.27c9.5,0,18.22,1.15,26.52-0.23
		c19.08-3.17,28.91,4.43,37.04,22.04c16.75,36.31,36.43,71.28,55.66,108.24c3.73-6.72,6.98-12.32,10.01-18.05
		c18.11-34.29,36.44-68.46,54.04-103.01c3.95-7.75,8.33-10.97,17.51-8.11c-1.17,2.4-2.24,4.8-3.47,7.11
		c-41.77,78.13-83.62,156.21-125.2,234.45C1811.58,1005.7,1807.09,1006.81,1799.45,1004.41z"/>
</g>
</svg>
